<?xml version="1.0" standalone="no"?>
<!DOCTYPE svg PUBLIC "-//W3C//DTD SVG 20010904//EN"
 "http://www.w3.org/TR/2001/REC-SVG-20010904/DTD/svg10.dtd">
<svg version="1.0" xmlns="http://www.w3.org/2000/svg"
 width="938.000000pt" height="1064.000000pt" viewBox="0 0 938.000000 1064.000000"
 preserveAspectRatio="xMidYMid meet">

<g transform="translate(0.000000,1064.000000) scale(0.100000,-0.100000)"
fill="#000000" stroke="none">
<path d="M1104 9187 l-81 -66 -7 -433 c-3 -238 -9 -496 -12 -573 l-6 -140 80
-47 80 -48 334 0 c183 0 450 3 594 7 l261 6 41 83 42 84 -7 543 -6 543 -86 46
-86 46 -530 7 -530 7 -81 -65z m959 -464 c4 -8 -20 -314 -25 -318 -2 -2 -146
-4 -322 -6 l-319 -4 2 100 c1 55 4 130 7 168 l7 67 323 0 c177 0 325 -3 327
-7z"/>
<path d="M8385 9218 c-9 -13 -40 -66 -69 -118 -119 -215 -171 -309 -211 -380
-82 -145 -212 -376 -245 -435 -18 -33 -49 -89 -70 -125 -20 -36 -59 -105 -85
-155 -26 -49 -55 -101 -65 -115 -9 -14 -45 -76 -80 -137 -34 -62 -68 -113 -75
-113 -21 0 -127 128 -483 583 -84 107 -158 200 -165 205 -11 9 -183 56 -302
82 -64 14 -175 40 -243 57 -91 23 -165 22 -190 -1 -31 -27 -34 -77 -23 -346
12 -279 10 -268 96 -495 29 -76 55 -156 55 -167 0 -5 -9 -8 -19 -8 -19 0 -64
48 -340 353 -63 70 -118 127 -122 127 -7 0 -49 19 -272 124 -55 25 -100 46
-102 46 -1 0 -67 31 -147 69 -79 38 -193 92 -254 119 -60 27 -143 65 -184 85
-231 108 -340 157 -352 157 -21 0 -290 -86 -349 -111 -83 -36 -84 -48 -22
-294 19 -77 39 -158 44 -180 25 -100 63 -199 101 -257 38 -60 240 -331 345
-464 65 -83 333 -426 384 -492 48 -62 58 -67 604 -317 88 -40 196 -88 240
-107 72 -31 80 -37 76 -59 -2 -13 -6 -188 -10 -389 -7 -410 1 -369 -94 -535
-69 -120 -69 -120 -182 -79 -288 104 -369 128 -465 132 -180 8 -329 -24 -535
-113 -16 -7 -115 -47 -220 -89 -248 -98 -377 -153 -500 -210 l-100 -47 -263
-267 c-261 -265 -387 -404 -409 -452 -13 -28 -29 -87 -68 -260 -51 -223 -137
-565 -150 -597 -15 -36 -201 -313 -270 -403 -68 -89 -85 -122 -85 -167 0 -63
27 -86 167 -143 67 -27 143 -60 170 -73 26 -13 60 -27 75 -31 36 -8 61 -35 53
-55 -4 -9 -13 -38 -20 -66 -51 -185 -68 -248 -82 -305 -13 -51 -18 -134 -22
-375 l-6 -310 -154 -3 c-93 -1 -160 -7 -168 -13 -18 -16 -16 -64 3 -80 22 -18
5653 -26 5696 -8 36 15 47 53 23 79 -16 18 -32 20 -155 20 -92 0 -140 4 -148
12 -9 9 -12 91 -12 308 0 257 -2 306 -19 366 -18 69 -122 369 -162 466 -11 29
-27 69 -34 88 -7 19 -45 117 -84 217 -39 99 -71 186 -71 192 0 6 21 53 48 104
l47 92 5 482 c5 467 6 483 25 497 11 9 23 16 27 16 4 0 56 31 115 68 182 116
528 322 664 396 55 30 68 42 73 68 8 40 8 1156 0 1196 -7 34 -60 96 -268 316
-78 82 -147 157 -153 167 -26 36 -155 92 -261 114 -18 4 -36 13 -38 20 -6 16
13 102 68 305 22 80 64 240 93 355 29 116 70 269 90 340 20 72 47 171 60 220
23 87 60 221 91 335 8 30 42 159 74 285 32 127 77 300 100 385 55 207 67 284
50 304 -19 24 -66 20 -85 -6z m-3774 -798 c83 -38 152 -70 154 -70 2 0 70 -31
151 -70 80 -38 148 -70 151 -70 2 0 46 -20 96 -44 51 -24 148 -69 217 -101 69
-32 163 -75 208 -96 46 -22 88 -39 92 -39 5 0 39 -35 77 -77 37 -42 91 -102
119 -132 28 -31 61 -70 75 -87 13 -17 60 -72 104 -121 44 -49 137 -154 206
-234 70 -79 168 -191 218 -248 50 -57 91 -106 91 -110 0 -10 -128 -121 -178
-155 -24 -16 -63 -47 -87 -69 -30 -26 -51 -37 -63 -33 -19 6 -101 90 -437 441
-235 246 -361 377 -476 496 -75 77 -98 94 -214 154 -71 37 -152 80 -180 95
-27 15 -84 45 -125 67 -143 76 -315 171 -362 199 -26 16 -78 48 -115 71 -37
23 -82 56 -100 75 -38 39 -79 126 -66 139 14 14 235 87 266 88 16 1 96 -30
178 -69z m3573 19 c-3 -5 -14 -47 -25 -92 -48 -206 -45 -200 -164 -267 -162
-90 -165 -91 -158 -75 3 9 49 96 102 193 l97 177 55 26 c30 15 60 34 68 43 14
16 36 12 25 -5z m-1878 -8 c16 -5 74 -19 129 -31 107 -24 237 -54 295 -70 30
-8 51 -28 111 -106 41 -53 108 -138 149 -189 144 -178 395 -499 413 -527 22
-37 22 -55 -1 -63 -26 -8 -69 -63 -137 -178 -32 -53 -62 -97 -66 -97 -4 0 -24
30 -46 68 -190 323 -258 433 -278 446 -13 9 -77 29 -142 46 -162 41 -433 116
-437 121 -1 2 -17 33 -34 68 l-32 64 0 206 c0 113 3 216 6 229 7 24 25 27 70
13z m1744 -480 c0 -26 -61 -237 -72 -247 -19 -19 -419 -217 -425 -210 -3 3 25
60 62 128 38 68 74 135 82 150 8 15 24 30 36 34 32 9 238 113 267 135 27 20
50 24 50 10z m-155 -583 c-20 -73 -41 -138 -48 -144 -11 -11 -44 -26 -257
-119 -41 -18 -133 -60 -205 -94 -71 -33 -131 -56 -133 -51 -6 16 155 304 180
322 12 10 113 60 223 111 110 52 216 103 235 115 48 30 49 19 5 -140z m-85
-322 c0 -8 -15 -68 -34 -133 -19 -65 -37 -136 -41 -156 -9 -44 -33 -63 -91
-73 -37 -5 -48 -1 -122 45 -45 28 -84 51 -87 51 -12 0 -85 51 -85 59 0 5 53
33 117 62 65 30 165 77 223 106 118 58 120 59 120 39z m-540 -313 c204 -126
281 -172 298 -177 10 -4 62 2 114 12 92 18 97 18 149 0 30 -10 82 -26 116 -34
57 -15 67 -22 149 -108 49 -50 148 -153 221 -228 l133 -137 0 -545 c0 -320 -4
-547 -9 -550 -5 -4 -40 -2 -78 3 -37 6 -151 19 -253 30 -102 12 -222 26 -267
32 -96 14 -105 11 -313 -101 -264 -142 -472 -242 -494 -236 -12 3 -87 85 -171
187 -83 100 -177 214 -210 254 -33 40 -89 108 -125 151 -36 44 -91 114 -122
157 -60 80 -78 93 -78 55 0 -13 -12 -63 -25 -113 -14 -49 -30 -112 -35 -138
-5 -26 -23 -94 -39 -150 -16 -56 -39 -142 -51 -192 -12 -49 -24 -92 -26 -94
-7 -8 -136 167 -199 271 -5 9 -27 41 -47 72 -21 30 -38 65 -38 78 0 22 22 88
95 281 l25 68 0 348 0 349 76 58 c43 33 89 68 103 78 74 56 314 246 366 291
111 95 75 88 385 80 l275 -6 75 -46z m-1855 -1460 c110 -36 206 -70 212 -77
10 -9 6 -23 -20 -66 l-33 -55 -125 -11 c-68 -6 -162 -18 -209 -27 -90 -17
-449 -52 -456 -44 -6 6 208 234 285 302 61 54 65 56 105 50 22 -4 131 -36 241
-72z m-485 61 c0 -4 -17 -25 -37 -48 -76 -85 -200 -222 -246 -272 -113 -122
-748 -505 -1011 -609 -184 -72 -410 -154 -415 -150 -11 12 26 56 169 202 85
87 220 227 300 312 129 137 152 157 215 186 39 17 88 38 110 45 22 7 97 37
167 66 179 76 525 208 683 262 36 12 65 14 65 6z m880 -295 c25 -39 91 -141
148 -226 56 -86 102 -160 102 -165 0 -10 -40 -107 -86 -206 -19 -41 -34 -75
-34 -76 0 -2 -29 -56 -64 -120 -36 -64 -67 -131 -71 -149 -28 -146 -145 -588
-164 -624 -4 -8 -26 3 -65 33 -33 24 -63 44 -68 44 -11 0 -220 140 -231 154
-10 13 -3 79 18 196 9 47 29 164 45 260 l30 175 141 295 c78 162 161 337 185
388 25 50 50 92 57 92 7 0 33 -32 57 -71z m-310 -107 c0 -5 -31 -69 -68 -143
-38 -74 -105 -210 -150 -304 -80 -169 -80 -171 -91 -285 -18 -195 -53 -409
-65 -403 -6 2 -31 29 -56 60 -25 30 -72 87 -105 127 -33 39 -94 111 -135 160
-96 115 -239 258 -250 251 -5 -3 -15 -18 -23 -33 -34 -67 -317 -591 -387 -717
-43 -77 -92 -165 -108 -195 -16 -30 -35 -56 -43 -58 -9 -1 -29 37 -61 115 -26
65 -103 258 -172 428 -69 171 -126 318 -126 327 0 20 45 44 255 135 83 35 159
70 170 77 11 7 56 32 100 56 44 24 161 98 260 165 99 66 200 131 225 142 33
16 88 26 205 37 184 18 415 44 495 55 77 12 130 12 130 3z m975 -644 c297
-230 343 -264 370 -278 17 -8 32 -17 35 -21 3 -3 16 -12 29 -21 22 -16 27 -14
100 22 42 20 94 46 116 56 22 10 74 39 115 64 41 26 82 50 90 54 8 4 53 26
100 50 l85 44 7 -82 c4 -44 9 -232 10 -416 l3 -335 -73 -165 c-41 -91 -90
-202 -110 -247 -28 -65 -42 -85 -65 -94 -16 -7 -45 -28 -66 -47 -20 -19 -61
-53 -91 -75 -61 -46 -64 -48 -101 -80 -14 -12 -68 -53 -119 -92 -50 -38 -122
-94 -158 -122 -37 -29 -70 -53 -75 -53 -12 0 1 89 25 180 12 41 24 93 29 115
13 65 35 155 54 225 25 93 30 130 15 130 -15 0 -145 -39 -332 -101 -82 -27
-167 -52 -190 -55 l-41 -7 6 33 c4 18 7 363 7 767 l0 734 63 -53 c34 -29 107
-88 162 -130z m-2925 -46 c0 -8 -41 -70 -278 -417 -240 -352 -240 -351 -246
-344 -2 2 22 112 55 244 32 132 66 272 74 310 9 39 19 78 21 87 3 10 22 22 47
29 40 10 116 34 252 79 68 22 75 23 75 12z m1757 -699 c105 -70 243 -180 243
-193 0 -9 -88 -69 -145 -98 -22 -11 -79 -44 -127 -74 -48 -29 -137 -83 -197
-120 -61 -38 -114 -68 -119 -68 -21 0 -122 312 -122 379 0 15 24 37 88 78 130
85 256 161 267 162 6 1 57 -29 112 -66z m-573 -205 c3 -13 14 -64 25 -115 12
-50 21 -101 21 -113 0 -11 11 -48 25 -81 13 -34 22 -65 20 -69 -3 -5 -44 -11
-93 -15 -78 -5 -168 -16 -532 -60 -58 -7 -108 -10 -113 -8 -4 2 -5 28 -2 56
23 263 30 319 40 327 18 15 480 96 562 99 37 1 43 -2 47 -21z m-1571 -28 c59
0 77 -3 77 -14 0 -7 -35 -87 -79 -177 -43 -90 -83 -177 -88 -194 l-10 -30
-188 -3 c-108 -1 -193 2 -198 7 -9 9 229 383 262 409 11 10 34 12 81 8 36 -3
100 -6 143 -6z m522 -25 c143 -9 270 -20 283 -25 21 -9 22 -14 17 -62 -20
-182 -39 -324 -46 -332 -4 -5 -87 -4 -191 3 -101 6 -266 13 -366 17 -164 6
-183 8 -179 23 13 39 79 196 137 324 27 59 33 67 58 67 15 0 144 -7 287 -15z
m3806 -317 c63 -123 309 -773 312 -821 0 -12 0 -156 -1 -319 l-2 -298 -285 0
-285 0 0 355 c0 277 3 370 15 418 13 59 22 97 61 267 52 232 131 459 154 445
6 -4 20 -25 31 -47z m-1283 -40 c5 -7 13 -38 17 -68 8 -62 60 -332 102 -525
l28 -130 -3 -338 -3 -337 -307 2 -307 3 -3 334 c-1 210 -6 339 -13 347 -6 8
-29 11 -67 8 -53 -3 -236 -15 -479 -30 -120 -7 -116 -12 -78 97 49 140 223
457 328 597 l39 52 368 0 c282 0 370 -3 378 -12z m-2609 -495 c21 -5 23 -10
18 -47 -4 -23 -21 -97 -40 -166 l-34 -125 -270 -3 c-220 -2 -272 0 -276 11 -8
22 64 298 85 325 8 9 71 12 252 12 132 0 252 -3 265 -7z m656 -118 c199 -15
321 -28 338 -37 16 -8 17 -36 17 -376 0 -273 -3 -371 -12 -380 -13 -13 -441
-18 -472 -6 -14 5 -16 50 -16 398 0 413 1 423 45 412 11 -2 56 -7 100 -11z
m2353 -17 c9 -9 12 -109 12 -388 0 -279 -3 -379 -12 -388 -14 -14 -87 -16
-108 -2 -13 8 -15 62 -13 397 1 213 2 389 2 391 2 8 109 0 119 -10z"/>
<path d="M7055 6023 c-167 -87 -163 -307 7 -377 125 -53 278 49 278 184 0 140
-169 255 -285 193z"/>
<path d="M7931 5644 c-30 -38 -28 -98 4 -129 50 -50 101 -17 99 66 -1 83 -60
118 -103 63z"/>
<path d="M8225 5644 c-27 -30 -33 -80 -14 -117 16 -29 28 -37 61 -37 58 0 81
103 33 154 -13 14 -31 26 -40 26 -9 0 -27 -12 -40 -26z"/>
<path d="M512 7747 l-32 -33 0 -226 0 -225 77 -7 c42 -3 131 -6 199 -6 l122 0
41 57 41 58 0 131 0 131 -40 50 -40 49 -148 23 c-81 13 -156 25 -167 28 -13 2
-31 -7 -53 -30z"/>
<path d="M1000 7501 l0 -259 123 -6 c67 -3 386 -7 710 -9 l587 -2 0 65 c0 68
-19 402 -23 406 -3 4 -1280 64 -1344 64 l-53 0 0 -259z"/>
<path d="M3669 7280 c-27 -44 -35 -50 -75 -56 -24 -3 -47 -11 -50 -16 -3 -5
10 -30 30 -55 31 -40 36 -54 36 -100 0 -60 9 -65 62 -37 29 15 33 15 74 -6 24
-12 48 -18 54 -15 5 3 10 29 10 56 0 42 6 58 35 96 20 26 34 51 32 57 -2 6
-17 12 -33 14 -61 6 -72 12 -94 56 -30 63 -45 65 -81 6z"/>
<path d="M1988 7062 l-38 -59 0 -130 0 -130 39 -49 39 -49 167 -29 167 -28 34
33 34 33 0 226 0 227 -97 6 c-54 4 -145 7 -203 7 l-105 0 -37 -58z"/>
<path d="M2882 6865 c-26 -37 -39 -46 -72 -51 -22 -4 -43 -11 -46 -16 -4 -5 9
-25 27 -44 31 -33 34 -40 32 -95 -1 -54 0 -59 20 -59 11 0 35 5 53 12 27 10
39 9 73 -6 52 -24 64 -15 57 43 -6 42 -4 50 29 90 20 25 34 49 32 55 -2 6 -23
12 -46 14 -39 3 -45 7 -73 53 -17 27 -36 49 -43 49 -6 0 -25 -20 -43 -45z"/>
<path d="M4262 6648 c-11 -24 -36 -82 -57 -130 -34 -80 -40 -88 -69 -92 -17
-2 -69 -10 -116 -16 -116 -15 -130 -19 -130 -31 0 -12 39 -51 133 -135 44 -40
57 -58 57 -80 0 -27 -22 -162 -35 -216 -3 -13 -1 -30 5 -38 10 -16 11 -16 175
74 69 38 70 38 105 23 31 -14 89 -46 172 -95 49 -28 54 -8 29 110 -34 168 -36
160 74 256 113 98 119 116 43 126 -165 19 -209 26 -216 30 -5 3 -21 38 -37 78
-35 89 -85 178 -101 178 -6 0 -21 -19 -32 -42z"/>
<path d="M1697 6440 c-54 -28 -100 -56 -102 -63 -3 -7 -18 -176 -34 -376 -17
-200 -32 -365 -33 -367 -2 -2 -38 2 -79 9 l-74 13 -6 64 c-4 36 -7 113 -8 171
l-1 105 63 26 62 26 -4 168 -3 169 -35 47 -34 48 -92 -6 c-51 -4 -127 -9 -171
-13 l-78 -6 -32 -90 -32 -90 16 -507 16 -507 40 -48 41 -48 94 -6 c52 -4 185
-7 296 -8 l201 -1 39 48 c22 26 42 52 46 58 3 5 20 176 37 380 18 203 33 370
35 372 1 2 42 -1 91 -5 l89 -8 0 -194 0 -194 -60 -17 -60 -17 -3 -204 -2 -205
197 -16 198 -17 55 48 55 48 -4 554 -4 553 -50 67 -50 67 -96 6 c-53 3 -170 8
-261 11 l-165 5 -98 -50z"/>
<path d="M5243 6088 c-23 -34 -36 -44 -71 -51 -23 -4 -42 -14 -42 -21 0 -7 13
-30 30 -52 25 -33 29 -48 30 -98 0 -42 3 -57 13 -53 85 31 86 31 122 14 20 -9
39 -17 44 -17 5 0 10 26 13 58 3 48 10 66 38 100 18 23 30 45 26 49 -4 5 -28
13 -54 18 -40 9 -50 16 -70 53 -13 23 -30 42 -37 42 -8 0 -26 -19 -42 -42z"/>
<path d="M3251 6007 c-33 -57 -38 -61 -103 -73 -21 -3 -38 -11 -38 -16 0 -6
16 -32 36 -59 34 -46 35 -51 29 -104 -7 -52 -6 -55 14 -55 12 0 40 9 62 20
l39 21 44 -26 c62 -36 66 -34 66 36 0 54 4 67 35 109 19 26 35 52 35 58 0 5
-23 12 -50 16 -45 6 -54 11 -80 49 -62 90 -53 87 -89 24z"/>
<path d="M1098 4959 c-105 -84 -98 -31 -63 -469 14 -173 25 -320 25 -326 0 -7
-86 -13 -271 -17 -149 -3 -274 -9 -277 -11 -6 -6 -33 -478 -28 -483 6 -7 429
-13 1179 -18 l767 -5 0 153 0 152 -37 31 -37 31 31 29 32 29 7 386 6 385 -96
90 -97 90 -447 12 c-246 7 -483 12 -527 12 l-80 -1 -87 -70z m906 -476 c3 -21
6 -102 6 -180 l0 -143 -264 0 -263 0 -7 46 c-3 26 -6 100 -6 165 l0 119 58 1
c53 1 450 24 463 28 4 0 9 -16 13 -36z"/>
<path d="M3150 4978 c-11 -12 -20 -25 -20 -30 0 -4 -11 -8 -25 -8 -32 0 -43
-25 -21 -49 9 -10 16 -32 16 -50 0 -29 2 -32 23 -25 21 8 39 8 81 2 14 -2 21
5 27 26 4 15 17 35 28 43 29 20 26 31 -13 47 -19 8 -37 23 -40 34 -10 30 -33
34 -56 10z"/>
<path d="M490 3205 l0 -325 203 0 203 0 23 47 22 46 746 -7 745 -6 -6 57 c-3
32 -13 144 -22 248 -9 105 -18 192 -20 195 -5 4 -1669 69 -1811 69 l-83 1 0
-325z"/>
<path d="M1084 2687 l-62 -94 -12 -552 c-6 -304 -10 -554 -8 -555 2 -2 39 -24
83 -51 l80 -47 582 7 583 7 45 75 45 74 0 292 c0 161 -3 410 -7 554 l-6 261
-82 46 -82 46 -104 -1 c-57 -1 -129 -4 -159 -7 l-55 -7 -10 -220 c-6 -121 -10
-223 -8 -226 1 -4 35 -15 74 -25 l71 -18 -6 -101 c-4 -55 -9 -128 -12 -162
l-6 -63 -239 -2 c-132 -1 -276 -3 -320 -3 l-82 0 2 90 c0 50 4 124 7 166 l6
77 129 12 129 12 0 234 0 234 -22 4 c-13 3 -108 10 -213 16 -104 6 -210 13
-235 15 l-45 5 -61 -93z"/>
<path d="M8450 1490 c-31 -31 -25 -57 17 -79 12 -6 62 -11 110 -11 76 0 92 3
111 20 27 26 28 44 2 70 -17 17 -33 20 -120 20 -87 0 -103 -3 -120 -20z"/>
</g>
</svg>
